<svg width="18" height="17" viewBox="0 0 18 17" fill="none" xmlns="http://www.w3.org/2000/svg">
<g clip-path="url(#clip0_132_572)">
<path opacity="0.2" d="M3.32275 5.84375H15.0103V3.1875C15.0103 3.0466 14.9543 2.91148 14.8547 2.81185C14.755 2.71222 14.6199 2.65625 14.479 2.65625H3.854C3.71311 2.65625 3.57798 2.71222 3.47835 2.81185C3.37872 2.91148 3.32275 3.0466 3.32275 3.1875V5.84375Z" fill="#003BA4"/>
<path d="M14.479 2.65625H3.854C3.5606 2.65625 3.32275 2.8941 3.32275 3.1875V13.8125C3.32275 14.1059 3.5606 14.3438 3.854 14.3438H14.479C14.7724 14.3438 15.0103 14.1059 15.0103 13.8125V3.1875C15.0103 2.8941 14.7724 2.65625 14.479 2.65625Z" stroke="#003BA4" stroke-linecap="round" stroke-linejoin="round"/>
<path d="M12.354 1.59375V3.71875" stroke="#003BA4" stroke-linecap="round" stroke-linejoin="round"/>
<path d="M5.979 1.59375V3.71875" stroke="#003BA4" stroke-linecap="round" stroke-linejoin="round"/>
<path d="M3.32275 5.84375H15.0103" stroke="#003BA4" stroke-linecap="round" stroke-linejoin="round"/>
</g>
<defs>
<clipPath id="clip0_132_572">
<rect width="17" height="17" fill="white" transform="translate(0.666504)"/>
</clipPath>
</defs>
</svg>
