<svg width="27" height="27" viewBox="0 0 27 27" fill="none" xmlns="http://www.w3.org/2000/svg">
<path d="M5.87833 11.7858C7.91833 15.795 11.205 19.0675 15.2142 21.1217L18.3308 18.005C18.7133 17.6225 19.28 17.495 19.7758 17.665C21.3625 18.1892 23.0767 18.4725 24.8333 18.4725C25.6125 18.4725 26.25 19.11 26.25 19.8892V24.8333C26.25 25.6125 25.6125 26.25 24.8333 26.25C11.5308 26.25 0.75 15.4692 0.75 2.16667C0.75 1.3875 1.3875 0.75 2.16667 0.75H7.125C7.90417 0.75 8.54167 1.3875 8.54167 2.16667C8.54167 3.9375 8.825 5.6375 9.34917 7.22417C9.505 7.72 9.39167 8.2725 8.995 8.66917L5.87833 11.7858Z" fill="white"/>
</svg>
